<svg data-v-0dd9719b="" version="1.0" xmlns="http://www.w3.org/2000/svg" xmlns:xlink="http://www.w3.org/1999/xlink" width="100%" height="100%" viewBox="0 0 340.000000 250.000000" preserveAspectRatio="xMidYMid meet" color-interpolation-filters="sRGB" style="margin: auto;"> <rect data-v-0dd9719b="" x="0" y="0" width="100%" height="100%" fill="#fff" fill-opacity="1" class="background"></rect> <rect data-v-0dd9719b="" x="0" y="0" width="100%" height="100%" fill="url(#watermark)" fill-opacity="1" class="watermarklayer"></rect> <g data-v-0dd9719b="" fill="#42bdd8" class="icon-text-wrapper icon-svg-group iconsvg" transform="translate(47.86500549316406,91.06834030151367)"><g class="iconsvg-imagesvg" transform="translate(0,0)"><g><rect fill="#42bdd8" fill-opacity="0" stroke-width="2" x="0" y="0" width="60" height="67.86332326694038" class="image-rect"></rect> <svg x="0" y="0" width="60" height="67.86332326694038" filtersec="colorsb8388072411" class="image-svg-svg primary" style="overflow: visible;"><svg xmlns="http://www.w3.org/2000/svg" viewBox="0 0 35.099998474121094 39.70000076293945"><g><g><g><path d="M28.5 24.9l3.5-.5v8.3l-28.2 7v-6.8l7.3-1.6a13.1 13.1 0 0 0 6.8 1.6c7.3 0 10.1-3.9 10.6-8zm-.3-16l3.8.5V4.9l-6.4-1.1a2.3 2.3 0 0 1 .7.7 7.9 7.9 0 0 1 1.9 4.4zM6.8 22.2h2v-7.5a7.5 7.5 0 0 1-1.5-4.6c0-4.2 2.9-7.1 6.6-8.4L3.8 0v22.7l3-.2z" fill="#42bdd8"></path><path fill="#e85298" d="M35.1 9.8L32 9.4v15l3.1-.6v-14z"></path><path d="M12.3 22.2H8.8v-7.5c1.7 2.4 4.6 3.6 6 4.2 4.7 2 6 2.5 6 4.5a3 3 0 0 1-3 3c-1 0-3.2-.7-3.2-4.2h-2.3zM28.2 8.9a9.9 9.9 0 0 1 .2 1.7h-7.8c-.2-1.1-.4-3-2.8-3a2.5 2.5 0 0 0-2.7 2.4c0 1.8.8 2.2 6.3 4.7s7.2 5.2 7.2 8.8a6.1 6.1 0 0 1-.1 1.4l3.5-.5v-15z" fill="#694584"></path><path fill="#dae000" d="M0 23v10.8l3.8-.9V22.7L0 23z"></path><path d="M6.8 23.2v-.7l-3 .2v10.2l7.3-1.6a9.3 9.3 0 0 1-4.3-8.1z" fill="#55a63c"></path></g></g></g></svg></svg> <!----></g></g> <g transform="translate(67,5.240047454833984)"><g data-gra="path-name" fill-rule="" class="tp-name iconsvg-namesvg" transform="translate(0,0)"><g transform="scale(1)"><g><path d="M23.95 0.31L34.5 0.31 37.79-3.87Q41.44-1.05 43.68 0.83L43.68 0.83Q43.46 1.58 42.41 1.58L42.41 1.58 1.76 1.58 1.41 0.31 18.15 0.31 18.15-37.62 25.62-36.91Q25.4-35.86 23.95-35.64L23.95-35.64 23.95-20.57 31.33-20.57 34.54-24.7Q38.19-21.97 40.34-20.04L40.34-20.04Q40.12-19.29 39.11-19.29L39.11-19.29 23.95-19.29 23.95 0.31ZM49.22-37.66L49.22-37.66 49.61-37.92Q55.59-37 57.04-33.97L57.04-33.97Q57.96-32.12 56.71-30.76 55.46-29.4 53.57-30.28L53.57-30.28Q53.26-30.45 52.91-30.67L52.91-30.67Q52.25-34.01 49.22-37.66ZM46.19-27.29L46.19-27.29 46.58-27.55Q52.29-26.72 53.57-23.82L53.57-23.82Q54.4-22.06 53.17-20.74L53.17-20.74Q51.94-19.42 50.14-20.3L50.14-20.3Q49.79-20.48 49.48-20.74L49.48-20.74Q49.26-22.41 48.32-24.21 47.37-26.02 46.19-27.29ZM58.49-30.54L58.49-30.54 59.28-30.37Q55.15-16.35 54.23-12.13L54.23-12.13Q53.66-9.4 53.7-7.91L53.7-7.91Q53.7-7.03 54.58-4.55 55.46-2.07 55.37 0.22L55.37 0.22Q55.33 1.89 54.34 2.92 53.35 3.96 51.77 3.96L51.77 3.96Q49.92 3.96 49.48 1.63L49.48 1.63Q50.1-1.98 49.99-4.77 49.88-7.56 49.04-8.09L49.04-8.09Q48.25-8.7 46.76-8.83L46.76-8.83 46.76-9.67 48.74-9.67Q49.09-9.67 49.26-9.71 49.44-9.76 49.64-9.95 49.83-10.15 50.05-10.63L50.05-10.63Q50.98-12.52 58.49-30.54ZM68.95-23.25L68.95-23.25 69.39-23.55Q74.36-22.41 75.28-19.73L75.28-19.73Q75.89-18.06 74.66-17.01L74.66-17.01Q73.39-15.91 71.81-17.01L71.81-17.01Q71.67-17.09 71.54-17.18L71.54-17.18Q71.24-20.04 68.95-23.25ZM67.9-13.32L67.9-13.32 68.25-13.58Q73.78-12.79 75.1-10.02L75.1-10.02Q75.85-8.35 74.75-7.21L74.75-7.21Q73.56-5.93 71.81-6.86L71.81-6.86Q71.63-6.94 71.46-7.08L71.46-7.08Q70.8-10.06 67.9-13.32ZM64.38-5.58L64.38-5.58 77.78-5.58Q78.35-8.88 78.66-14.28L78.66-14.28 65.74-14.28Q65.21-10.85 64.38-5.58ZM79.01-24.04L79.01-24.04 67.06-24.04Q66.93-23.03 65.92-15.56L65.92-15.56 78.75-15.56Q78.97-22.24 79.01-24.04ZM82.66-5.63L82.66-5.63 84.95-9.18Q87.67-6.68 89.21-5.05L89.21-5.05Q88.99-4.31 88.02-4.31L88.02-4.31 82.49-4.31Q81.74 0.18 80.2 1.71L80.2 1.71Q78.09 3.82 74.27 3.82L74.27 3.82Q74.27 1.36 73.39 0.48L73.39 0.48Q72.38-0.7 69.26-1.27L69.26-1.27 69.26-1.89Q73.56-1.58 74.93-1.58L74.93-1.58Q76.2-1.58 76.68-2.18 77.17-2.77 77.52-4.31L77.52-4.31 64.2-4.31Q63.98-3.08 63.63-0.97L63.63-0.97Q61.88 0 58.71-0.7L58.71-0.7Q60.12-7.95 61.08-14.28L61.08-14.28 57.39-14.28 57-15.56 61.26-15.56Q62.23-22.72 62.45-24.48L62.45-24.48Q60.38-22.41 57.92-20.7L57.92-20.7 57.39-21.09Q62.31-27.86 64.6-38.23L64.6-38.23 71.37-35.99Q71.06-35.02 69.57-35.16L69.57-35.16Q68.73-33.27 67.5-31.16L67.5-31.16 80.9-31.16 83.63-34.8Q86.62-32.3 88.37-30.59L88.37-30.59Q88.24-29.88 87.14-29.88L87.14-29.88 66.75-29.88Q66.23-29.05 64.56-26.85L64.56-26.85 68.03-25.36 78.57-25.36 81.12-27.99 85.65-24.08Q85.08-23.42 83.76-23.25L83.76-23.25Q83.72-18.98 83.54-15.56L83.54-15.56 85.61-18.81Q88.02-16.57 89.38-14.99L89.38-14.99Q89.25-14.28 88.2-14.28L88.2-14.28 83.41-14.28Q83.14-8.66 82.66-5.63ZM103.71-22.68L106.13-22.68 108.41-25.75Q111.01-23.6 112.63-22.1L112.63-22.1Q112.5-21.36 111.45-21.36L111.45-21.36 91.49-21.36 91.14-22.68 98.75-22.68 98.75-26.89 92.94-26.89 92.55-28.17 98.75-28.17 98.75-31.82 92.07-31.82 91.71-33.09 98.75-33.09 98.75-38.23 105.21-37.66Q105.12-36.69 103.71-36.47L103.71-36.47 103.71-33.09 105.64-33.09 107.97-36.12Q110.61-34.01 112.15-32.52L112.15-32.52Q112.02-31.82 110.96-31.82L110.96-31.82 103.71-31.82 103.71-28.17 104.94-28.17 106.96-30.89Q109.38-29 110.83-27.64L110.83-27.64Q110.7-26.89 109.64-26.89L109.64-26.89 103.71-26.89 103.71-22.68ZM122.26-10.2L125.38-10.2 125.38-16.44 122.26-16.44 122.26-10.2ZM125.38-23.99L122.26-23.99 122.26-17.62 125.38-17.62 125.38-23.99ZM102.88-16.88L102.88-9.01 105.21-9.01 105.21-16.88 102.88-16.88ZM99.62-16.88L97.43-16.88 97.43-9.01 99.62-9.01 99.62-16.88ZM130.21-23.16L130.21-17.89 131.7-20.52Q133.64-18.46 134.65-17.09L134.65-17.09Q134.47-16.44 133.51-16.44L133.51-16.44 130.21-16.44 130.21-7.69Q130.17-7.56 129.59-7.32 129.02-7.08 128.08-6.86 127.13-6.64 126.25-6.64L126.25-6.64 125.38-6.64 125.38-8.96 122.26-8.96 122.26-2.33Q122.26 0.66 121.07 2.18 119.88 3.69 116.19 4L116.19 4Q116.06 1.23 115.53 0.35L115.53 0.35Q114.7-0.92 112.46-1.32L112.46-1.32 112.46-1.89Q115.62-1.71 116.32-1.71L116.32-1.71Q117.16-1.71 117.16-2.46L117.16-2.46 117.16-8.96 112.54-8.96 112.15-10.2 117.16-10.2 117.16-16.44 111.09-16.48Q110.65-16.22 109.91-16.08L109.91-16.08 109.91-1.23Q109.91 1.36 108.83 2.57 107.75 3.78 104.24 4.09L104.24 4.09Q104.11 1.89 103.45 1.05L103.45 1.05Q102.61-0.09 100.55-0.4L100.55-0.4 100.55-1.05Q103.62-0.83 104.46-0.83L104.46-0.83Q105.21-0.83 105.21-1.67L105.21-1.67 105.21-7.73 97.43-7.73 97.43 2.42Q97.43 2.81 96.22 3.38 95.01 3.96 93.69 3.96L93.69 3.96 93.03 3.96 93.03-20.08 97.65-18.15 104.77-18.15 106.92-20.61 110.87-17.62 117.16-17.62 117.16-23.99 112.81-23.99 112.41-25.22 120.15-25.22Q121.25-28.26 122.3-31.73L122.3-31.73 118.52-31.73Q114.92-26.81 110.61-24.17L110.61-24.17 110.17-24.48Q111.93-26.85 113.42-30.61 114.92-34.37 115.71-37.97L115.71-37.97 122.74-36.3Q122.48-35.64 121.11-35.68L121.11-35.68Q120.41-34.45 119.49-33.05L119.49-33.05 122.12-33.05 124.94-35.77 129.64-31.55Q129.29-31.11 127.92-30.98L127.92-30.98Q123.71-26.89 121.6-25.22L121.6-25.22 125.64-25.22 127.84-27.6 131.84-23.99Q131.26-23.38 130.21-23.16L130.21-23.16ZM142.16-24.7L147.52-22.81 159.04-22.81Q158.86-24.79 158.77-28.65L158.77-28.65 165.06-28.08Q164.44-28.74 164.18-29L164.18-29 164.58-29.36Q169.76-29.05 170.68-26.63L170.68-26.63Q171.34-28.7 171.65-30.67L171.65-30.67 144.23-30.67Q144.4-26.67 142.16-24.7L142.16-24.7ZM163.78-22.81L170.82-22.81 173.5-26.06Q176.44-23.86 178.29-22.24L178.29-22.24Q178.07-21.49 177.06-21.49L177.06-21.49 163.87-21.49Q164.44-15.25 166.33-10.68L166.33-10.68Q168.93-14.77 170.42-19.51L170.42-19.51 176.92-16.66Q176.44-15.78 174.99-16L174.99-16Q172.31-10.37 168.66-6.46L168.66-6.46Q170.51-3.96 173.01-2.24L173.01-2.24Q173.94-1.54 174.46-2.46L174.46-2.46Q175.65-4.44 176.75-7.25L176.75-7.25 177.28-7.16 176.44-0.75Q178.51 2.02 177.58 3.16L177.58 3.16Q176.84 4.09 175.52 4.11 174.2 4.13 172.95 3.6 171.69 3.08 170.55 2.24L170.55 2.24Q167.39-0.04 165.06-3.16L165.06-3.16Q159.87 0.92 152.23 3.34L152.23 3.34 151.88 2.77Q158.29-0.62 163.13-6.33L163.13-6.33Q160-12.3 159.13-21.49L159.13-21.49 146.69-21.49 146.69-17.05Q146.69-15.64 146.65-14.94L146.65-14.94 151.52-14.94 153.94-17.23 158.25-13.71Q157.85-13.1 156.62-12.96L156.62-12.96Q156.53-7.25 156.05-4.75 155.57-2.24 154.34-1.27L154.34-1.27Q152.49 0 149.63 0L149.63 0Q149.63-2.29 148.97-3.08L148.97-3.08Q148.14-4 145.85-4.48L145.85-4.48 145.85-5.14Q149.15-4.92 149.99-4.92L149.99-4.92Q150.78-4.92 151.08-5.23L151.08-5.23Q151.79-5.84 151.96-13.62L151.96-13.62 146.56-13.62Q145.72-1.45 136.71 4.09L136.71 4.09 136.32 3.69Q139.44-0.57 140.45-5.71 141.46-10.85 141.46-17.05L141.46-17.05 141.46-24.21 141.42-24.17Q140.27-23.42 138.87-23.73 137.46-24.04 137.02-25.27L137.02-25.27Q136.32-27.6 138.87-28.87L138.87-28.87Q140.36-29.58 141.55-31.18 142.73-32.78 142.78-34.58L142.78-34.58 143.39-34.63Q143.96-32.87 144.1-31.95L144.1-31.95 154.73-31.95 154.73-38.32 161.81-37.75Q161.67-36.69 160.14-36.47L160.14-36.47 160.14-31.95 171.74-31.95 174.38-34.58 178.68-30.23Q178.15-29.75 176.97-29.71L176.97-29.71Q174.11-27.47 171.04-26.32L171.04-26.32 170.73-26.54Q171.17-25.05 169.83-24.17 168.49-23.29 166.82-24.39L166.82-24.39Q166.6-26.06 165.19-27.95L165.19-27.95Q164.93-27.03 163.65-26.85L163.65-26.85Q163.65-24.87 163.78-22.81L163.78-22.81Z" transform="translate(-1.409999966621399, 38.31999969482422)"></path></g> <!----> <!----> <!----> <!----> <!----> <!----> <!----></g></g> <g data-gra="path-slogan" fill-rule="" class="tp-slogan iconsvg-slogansvg" fill="#42bdd8" transform="translate(5,48.43072509765625)"><rect x="0" height="1" y="3.9750003814697266" width="13.249168395996094"></rect> <rect height="1" y="3.9750003814697266" width="13.249168395996094" x="154.02082061767578"></rect> <g transform="translate(16.249168395996094,0)"><g transform="scale(1)"><path d="M7.17-6.09L7.17-6.09L6.09-6.09Q6-7.73 3.94-7.83L3.94-7.83Q2.02-7.78 2.02-6.33L2.02-6.33Q2.02-5.39 3.05-5.25L3.05-5.25L5.48-4.69Q7.41-4.22 7.41-2.34L7.41-2.34Q7.36 0.05 4.03 0.14L4.03 0.14Q2.20 0.14 1.45-0.61L1.45-0.61Q0.52-1.31 0.56-2.77L0.56-2.77L1.69-2.77Q1.73-0.80 4.03-0.75L4.03-0.75Q6.28-0.80 6.33-2.20L6.33-2.20Q6.52-3.38 4.45-3.75L4.45-3.75L2.67-4.13Q0.84-4.64 0.84-6.19L0.84-6.19Q0.98-8.72 3.84-8.81L3.84-8.81Q7.08-8.81 7.17-6.09ZM10.03-5.06L14.53-5.06L14.53-8.58L15.70-8.58L15.70 0L14.53 0L14.53-3.98L10.03-3.98L10.03 0L8.86 0L8.86-8.58L10.03-8.58L10.03-5.06ZM23.16 0L22.31-2.48L18.84-2.48L17.95 0L16.78 0L20.02-8.58L21.33-8.58L24.42 0L23.16 0ZM20.58-7.31L19.22-3.52L21.89-3.52L20.63-7.31L20.58-7.31ZM26.86-8.58L31.17-1.64L31.17-8.58L32.30-8.58L32.30 0L30.98 0L26.63-6.94L26.58-6.94L26.58 0L25.45 0L25.45-8.58L26.86-8.58ZM40.50-3.61L37.88-3.61L37.88-4.59L41.63-4.59L41.63 0L40.88 0L40.59-1.08Q39.61 0.09 37.78 0.14L37.78 0.14Q36.05 0.14 35.11-0.75L35.11-0.75Q33.70-2.06 33.75-4.36L33.75-4.36Q34.08-8.63 37.83-8.81L37.83-8.81Q41.02-8.63 41.48-6L41.48-6L40.36-6Q39.89-7.78 37.78-7.83L37.78-7.83Q35.11-7.64 34.97-4.31L34.97-4.31Q34.97-0.75 37.83-0.75L37.83-0.75Q38.86-0.75 39.61-1.31L39.61-1.31Q40.55-2.06 40.50-3.61L40.50-3.61ZM44.58-5.06L49.08-5.06L49.08-8.58L50.25-8.58L50.25 0L49.08 0L49.08-3.98L44.58-3.98L44.58 0L43.41 0L43.41-8.58L44.58-8.58L44.58-5.06ZM57.70 0L56.86-2.48L53.39-2.48L52.50 0L51.33 0L54.56-8.58L55.88-8.58L58.97 0L57.70 0ZM55.13-7.31L53.77-3.52L56.44-3.52L55.17-7.31L55.13-7.31ZM60.19-8.58L61.36-8.58L61.36 0L60.19 0L60.19-8.58ZM65.95-1.92L65.95-2.77L67.03-2.77L67.03-2.16Q67.03-0.75 68.34-0.75L68.34-0.75Q69.70-0.75 69.70-2.25L69.70-2.25L69.70-8.58L70.88-8.58L70.88-2.30Q70.83 0.09 68.39 0.14L68.39 0.14Q66.09 0.09 65.95-1.92L65.95-1.92ZM72.84-8.58L74.02-8.58L74.02 0L72.84 0L72.84-8.58ZM77.39-8.58L81.70-1.64L81.70-8.58L82.83-8.58L82.83 0L81.52 0L77.16-6.94L77.11-6.94L77.11 0L75.98 0L75.98-8.58L77.39-8.58ZM91.03-3.61L88.41-3.61L88.41-4.59L92.16-4.59L92.16 0L91.41 0L91.13-1.08Q90.14 0.09 88.31 0.14L88.31 0.14Q86.58 0.14 85.64-0.75L85.64-0.75Q84.23-2.06 84.28-4.36L84.28-4.36Q84.61-8.63 88.36-8.81L88.36-8.81Q91.55-8.63 92.02-6L92.02-6L90.89-6Q90.42-7.78 88.31-7.83L88.31-7.83Q85.64-7.64 85.50-4.31L85.50-4.31Q85.50-0.75 88.36-0.75L88.36-0.75Q89.39-0.75 90.14-1.31L90.14-1.31Q91.08-2.06 91.03-3.61L91.03-3.61ZM101.11-6.05L101.11-6.05L99.98-6.05Q99.56-7.78 97.59-7.83L97.59-7.83Q94.88-7.69 94.78-4.36L94.78-4.36Q94.78-0.80 97.64-0.80L97.64-0.80Q99.61-0.84 100.08-3.19L100.08-3.19L101.20-3.19Q100.69 0.05 97.41 0.14L97.41 0.14Q93.66 0 93.56-4.31L93.56-4.31Q93.75-8.63 97.59-8.81L97.59-8.81Q100.64-8.72 101.11-6.05ZM103.73-5.06L108.23-5.06L108.23-8.58L109.41-8.58L109.41 0L108.23 0L108.23-3.98L103.73-3.98L103.73 0L102.56 0L102.56-8.58L103.73-8.58L103.73-5.06ZM112.50-1.03L117.66-1.03L117.66 0L111.33 0L111.33-8.58L117.56-8.58L117.56-7.59L112.50-7.59L112.50-4.92L117.19-4.92L117.19-3.89L112.50-3.89L112.50-1.03ZM120.56-8.58L124.88-1.64L124.88-8.58L126-8.58L126 0L124.69 0L120.33-6.94L120.28-6.94L120.28 0L119.16 0L119.16-8.58L120.56-8.58ZM134.20-3.61L131.58-3.61L131.58-4.59L135.33-4.59L135.33 0L134.58 0L134.30-1.08Q133.31 0.09 131.48 0.14L131.48 0.14Q129.75 0.14 128.81-0.75L128.81-0.75Q127.41-2.06 127.45-4.36L127.45-4.36Q127.78-8.63 131.53-8.81L131.53-8.81Q134.72-8.63 135.19-6L135.19-6L134.06-6Q133.59-7.78 131.48-7.83L131.48-7.83Q128.81-7.64 128.67-4.31L128.67-4.31Q128.67-0.75 131.53-0.75L131.53-0.75Q132.56-0.75 133.31-1.31L133.31-1.31Q134.25-2.06 134.20-3.61L134.20-3.61Z" transform="translate(-0.5602678571428572, 8.8125)"></path></g></g></g></g></g><defs v-gra="od"></defs></svg>